<?xml version="1.0" encoding="UTF-8" standalone="no"?>
<!-- Created with Inkscape (http://www.inkscape.org/) -->

<svg
   xmlns:dc="http://purl.org/dc/elements/1.1/"
   xmlns:cc="http://creativecommons.org/ns#"
   xmlns:rdf="http://www.w3.org/1999/02/22-rdf-syntax-ns#"
   xmlns:svg="http://www.w3.org/2000/svg"
   xmlns="http://www.w3.org/2000/svg"
   version="1.2"
   width="1024"
   height="1024"
   id="svg2">
  <defs
     id="defs4" />
  <metadata
     id="metadata7">
    <rdf:RDF>
      <cc:Work
         rdf:about="">
        <dc:format>image/svg+xml</dc:format>
        <dc:type
           rdf:resource="http://purl.org/dc/dcmitype/StillImage" />
        <dc:title></dc:title>
      </cc:Work>
    </rdf:RDF>
  </metadata>
  <g
     id="layer2">
    <g
       id="layer3"
       style="display:inline">
      <g
         id="layer4"
         style="display:inline">
        <path
           d="m 549.42197,67.991638 a 37.421967,37.421967 0 1 1 -74.84394,0 37.421967,37.421967 0 1 1 74.84394,0 z"
           transform="matrix(1.6033364,0,0,1.6033364,-308.90824,-33.6969)"
           id="path3878"
           style="fill:#333333;fill-opacity:1;stroke:none" />
        <path
           d="m 659.02352,719.03888 97.58073,0"
           id="path3805-7"
           style="fill:none;stroke:#333333;stroke-width:42;stroke-linecap:butt;stroke-linejoin:miter;stroke-miterlimit:4;stroke-opacity:1;stroke-dasharray:none" />
        <rect
           width="983.8786"
           height="79.878609"
           x="20.060699"
           y="807.95178"
           id="rect2999"
           style="fill:#333333;fill-opacity:1;stroke:#333333;stroke-width:40.1213913;stroke-miterlimit:4;stroke-opacity:1;stroke-dasharray:none" />
        <rect
           width="290"
           height="280"
           x="367"
           y="527.64441"
           id="rect3783"
           style="fill:none;stroke:#333333;stroke-width:40;stroke-miterlimit:4;stroke-opacity:1;stroke-dasharray:none" />
        <path
           d="m 270.1325,473.03815 0.67169,316.0413"
           id="path3785"
           style="fill:none;stroke:#333333;stroke-width:54.03542709;stroke-linecap:butt;stroke-linejoin:miter;stroke-miterlimit:4;stroke-opacity:1;stroke-dasharray:none" />
        <path
           d="m 754.85347,473.74452 0.67315,315.33566"
           id="path3785-5"
           style="fill:none;stroke:#333333;stroke-width:54.03396225;stroke-linecap:butt;stroke-linejoin:miter;stroke-miterlimit:4;stroke-opacity:1;stroke-dasharray:none" />
        <path
           d="m 277.89297,719.0389 97.58073,0"
           id="path3805"
           style="fill:none;stroke:#333333;stroke-width:42;stroke-linecap:butt;stroke-linejoin:miter;stroke-miterlimit:4;stroke-opacity:1;stroke-dasharray:none" />
        <path
           d="m 272.94322,525.34633 481.53971,-0.70711"
           id="path3827"
           style="fill:none;stroke:#333333;stroke-width:42;stroke-linecap:butt;stroke-linejoin:miter;stroke-miterlimit:4;stroke-opacity:1;stroke-dasharray:none" />
        <path
           d="m 511.50001,97.1025 c -132.72396,196.52558 -242,378.50341 -488,165.58101 0,222.03153 -4e-6,185.07485 488,189.42453"
           id="path3858"
           style="fill:none;stroke:#333333;stroke-width:46;stroke-linecap:round;stroke-linejoin:miter;stroke-miterlimit:4;stroke-opacity:1;stroke-dasharray:none" />
        <path
           d="m 512.50002,97.1298 c 132.72396,196.52565 242,378.50348 487.99998,165.58108 0,222.03153 0,185.07485 -487.99998,189.42453"
           id="path3858-6"
           style="fill:none;stroke:#333333;stroke-width:46;stroke-linecap:round;stroke-linejoin:miter;stroke-miterlimit:4;stroke-opacity:1;stroke-dasharray:none" />
        <g
           transform="matrix(1.3505751,0,0,1,12.193822,-455.39661)"
           id="flowRoot3027"
           style="font-size:144px;font-style:normal;font-variant:normal;font-weight:bold;font-stretch:normal;line-height:123.00000191%;letter-spacing:60px;word-spacing:0px;fill:#333333;fill-opacity:1;stroke:none;font-family:Impact;-inkscape-font-specification:Impact Bold">
          <g
             transform="translate(-10.333502,230.51681)"
             id="g3799">
            <path
               d="m 85.627766,1167.1063 -27.915145,0 0,-8.4375 c -4.2e-5,-3.9374 -0.357013,-6.4452 -1.070913,-7.5234 -0.713982,-1.078 -1.903885,-1.6171 -3.569712,-1.6172 -1.808689,10e-5 -3.188976,0.7267 -4.140866,2.1797 -0.904359,1.4532 -1.356522,3.6564 -1.35649,6.6094 -3.2e-5,3.7969 0.523526,6.6563 1.570673,8.5781 0.999485,1.922 3.831454,4.2423 8.495914,6.9609 13.374465,7.8282 21.798975,14.2501 25.273558,19.2657 3.474449,5.0156 5.211706,13.1016 5.211779,24.2578 -7.3e-5,8.1094 -0.975792,14.0859 -2.927163,17.9297 -1.903914,3.8437 -5.616411,7.0781 -11.137501,9.7031 -5.521206,2.5781 -11.94668,3.8672 -19.276442,3.8672 -8.043781,0 -14.921419,-1.5 -20.632934,-4.5 -5.663955,-3 -9.376451,-6.8203 -11.1375,-11.461 -1.761063,-4.6406 -2.641591,-11.2265 -2.641586,-19.7578 l 0,-7.4531 27.915144,0 0,13.8516 c -3.2e-5,4.2656 0.380737,7.0078 1.142308,8.2265 0.809101,1.2188 2.213186,1.8282 4.21226,1.8282 1.998999,0 3.474477,-0.7735 4.426442,-2.3204 0.999477,-1.5468 1.499236,-3.8437 1.499279,-6.8906 -4.3e-5,-6.7031 -0.928168,-11.0859 -2.784375,-13.1484 -1.903885,-2.0625 -6.592101,-5.5078 -14.064664,-10.336 -7.472616,-4.8749 -12.422611,-8.414 -14.850001,-10.6171 -2.427413,-2.2031 -4.450247,-5.25 -6.068509,-9.1407 -1.570677,-3.8905 -2.356013,-8.8593 -2.35601,-14.9062 -3e-6,-8.7187 1.118505,-15.0937 3.355529,-19.125 2.284607,-4.0312 5.949507,-7.1718 10.994712,-9.4219 5.045169,-2.2967 11.137471,-3.4452 18.276924,-3.4453 7.805725,10e-5 14.445382,1.2423 19.91899,3.7266 5.521093,2.4844 9.162195,5.6251 10.923318,9.4218 1.808585,3.7501 2.712911,10.1486 2.712981,19.1953 l 0,4.5"
               id="path3804"
               style="line-height:123.00000191%;fill:#333333;fill-opacity:1" />
            <path
               d="m 219.08738,1132.6532 0,22.7813 -17.84856,0 0,91.0547 -30.05697,0 0,-91.0547 -17.77716,0 0,-22.7813 65.68269,0"
               id="path3806"
               style="line-height:123.00000191%;fill:#333333;fill-opacity:1" />
            <path
               d="m 355.18859,1132.6532 0,76.0781 c -7e-5,8.6251 -0.28565,14.6954 -0.85673,18.211 -0.57123,3.4688 -2.26089,7.0547 -5.069,10.7578 -2.80823,3.6563 -6.52073,6.4453 -11.1375,8.3672 -4.56928,1.875 -9.97143,2.8125 -16.20648,2.8125 -6.90148,0 -12.99379,-1.125 -18.27692,-3.375 -5.28319,-2.25 -9.23368,-5.1797 -11.85145,-8.7891 -2.6178,-3.6093 -4.16467,-7.4062 -4.64062,-11.3906 -0.47598,-4.0312 -0.71395,-12.4687 -0.71395,-25.3125 l 0,-67.3594 30.05698,0 0,85.3594 c -4e-5,4.9688 0.26173,8.1563 0.78533,9.5625 0.57112,1.3594 1.68963,2.0391 3.35553,2.0391 1.9038,0 3.1175,-0.75 3.64111,-2.25 0.57111,-1.5469 0.85669,-5.1563 0.85673,-10.8282 l 0,-83.8828 30.05697,0"
               id="path3808"
               style="line-height:123.00000191%;fill:#333333;fill-opacity:1" />
            <path
               d="m 427.74893,1132.6532 22.48918,0 c 14.51678,10e-5 24.32158,0.6564 29.41443,1.9688 5.14032,1.3126 9.0432,3.4688 11.70865,6.4687 2.66531,3.0001 4.33118,6.3517 4.99759,10.0547 0.66628,3.6564 0.99945,10.8751 0.99953,21.6563 l 0,39.8671 c -8e-5,10.2188 -0.49984,17.0626 -1.49929,20.5313 -0.95199,3.4219 -2.64166,6.1172 -5.06898,8.0859 -2.42747,1.9219 -5.42604,3.2813 -8.99568,4.0782 -3.56977,0.75 -8.94813,1.125 -16.13509,1.125 l -37.91034,0 0,-113.836 m 30.05697,19.4766 0,74.8828 c 4.33121,0 6.9966,-0.8437 7.99615,-2.5313 0.99947,-1.7343 1.49924,-6.3984 1.49928,-13.9921 l 0,-44.2266 c -4e-5,-5.1562 -0.16663,-8.4608 -0.49975,-9.9141 -0.33322,-1.453 -1.09476,-2.5077 -2.28462,-3.164 -1.18995,-0.7031 -3.42696,-1.0546 -6.71106,-1.0547"
               id="path3810"
               style="line-height:123.00000191%;fill:#333333;fill-opacity:1" />
            <path
               d="m 599.54725,1132.6532 0,113.836 -30.05697,0 0,-113.836 30.05697,0"
               id="path3812"
               style="line-height:123.00000191%;fill:#333333;fill-opacity:1" />
            <path
               d="m 741.35999,1199.3095 c -7e-5,11.4375 -0.28565,19.5469 -0.85673,24.3281 -0.52363,4.7344 -2.23709,9.0703 -5.14039,13.0078 -2.85583,3.9375 -6.73491,6.961 -11.63725,9.0703 -4.90246,2.1094 -10.61399,3.1641 -17.13462,3.1641 -6.18754,0 -11.75628,-0.9844 -16.70625,-2.9531 -4.90242,-2.0157 -8.8529,-5.0157 -11.85144,-9 -2.99857,-3.9844 -4.78343,-8.3203 -5.35457,-13.0079 -0.57116,-4.6874 -0.85674,-12.8905 -0.85673,-24.6093 l 0,-19.4766 c -10e-6,-11.4374 0.26178,-19.5233 0.78534,-24.2578 0.57114,-4.7812 2.2846,-9.1405 5.14038,-13.0781 2.90335,-3.9374 6.80623,-6.9609 11.70866,-9.0703 4.90238,-2.1093 10.6139,-3.164 17.13461,-3.1641 6.18745,10e-5 11.7324,1.0079 16.63486,3.0234 4.94994,1.9689 8.92421,4.9455 11.92284,8.9297 2.99848,3.9845 4.78333,8.3204 5.35456,13.0078 0.57108,4.6876 0.85666,12.8907 0.85673,24.6094 l 0,19.4766 m -30.05697,-37.4063 c -4e-5,-5.2968 -0.30942,-8.6718 -0.92812,-10.125 -0.5712,-1.4999 -1.7849,-2.2499 -3.64111,-2.25 -1.57071,10e-5 -2.78441,0.6095 -3.64111,1.8281 -0.80917,1.172 -1.21373,4.6876 -1.2137,10.5469 l 0,53.1563 c -3e-5,6.6094 0.26175,10.6875 0.78534,12.2343 0.57111,1.5469 1.85621,2.3204 3.85528,2.3204 2.0466,0 3.35549,-0.8906 3.92669,-2.6719 0.57111,-1.7812 0.85669,-6.0234 0.85673,-12.7266 l 0,-52.3125"
               id="path3814"
               style="line-height:123.00000191%;fill:#333333;fill-opacity:1" />
          </g>
        </g>
        <g
           transform="matrix(1.1917837,0,0,1,-73.737074,543.38671)"
           id="flowRoot4009"
           style="font-size:500px;font-style:normal;font-variant:normal;font-weight:bold;font-stretch:normal;line-height:125%;letter-spacing:0px;word-spacing:0px;fill:#ffffff;fill-opacity:1;stroke:none;font-family:Impact;-inkscape-font-specification:Impact Bold">
          <path
             d="m 119.53531,274.70418 0,6.13123 -15.12902,0 0,53.30992 -6.210868,0 0,-53.30992 -15.168841,0 0,-6.13123 36.508729,0"
             id="path5457"
             style="font-size:81.53749847px;text-align:start;line-height:125%;letter-spacing:27.40637207px;writing-mode:lr-tb;text-anchor:start;fill:#ffffff;font-family:Sawasdee;-inkscape-font-specification:Sawasdee Bold" />
          <path
             d="m 183.41061,334.14533 -6.92751,0 c -0.90246,-2.0172 -1.28732,-3.86188 -1.15458,-5.53404 -4.1406,4.14058 -8.67931,6.21087 -13.61612,6.21087 -2.33573,0 -4.41929,-0.35832 -6.25068,-1.07496 -1.83142,-0.71664 -3.29124,-1.65888 -4.37946,-2.82674 -1.06169,-1.16785 -1.87122,-2.41533 -2.4286,-3.74244 -0.53085,-1.35365 -0.79627,-2.72056 -0.79627,-4.10077 0,-1.43326 0.22561,-2.73382 0.67683,-3.90169 0.45121,-1.19438 1.02186,-2.21626 1.71197,-3.06562 0.69008,-0.87587 1.60579,-1.6456 2.74711,-2.30917 1.1413,-0.69007 2.22953,-1.24746 3.26468,-1.67216 1.06168,-0.42465 2.34897,-0.79624 3.86189,-1.11477 1.53942,-0.31848 2.85326,-0.54409 3.94151,-0.67682 1.11475,-0.15923 2.48167,-0.27867 4.10076,-0.35832 1.61904,-0.0796 2.85325,-0.11942 3.70263,-0.11944 0.84932,-0.0265 1.96409,-0.0398 3.34431,-0.0398 -0.37162,-3.31774 -1.59256,-5.94541 -3.66282,-7.88302 -2.04377,-1.93755 -4.35293,-2.90633 -6.9275,-2.90637 -0.63703,4e-5 -1.2475,0.0531 -1.83141,0.15925 -0.58394,0.10621 -1.12806,0.26546 -1.63234,0.47776 -0.50432,0.21237 -0.9688,0.42471 -1.39346,0.63701 -0.42469,0.21238 -0.84937,0.49107 -1.27403,0.83608 -0.39814,0.34508 -0.74319,0.63705 -1.03514,0.87589 -0.26543,0.21237 -0.5574,0.51761 -0.87589,0.91571 -0.31852,0.37162 -0.54413,0.65031 -0.67683,0.83608 -0.13272,0.15928 -0.31851,0.39816 -0.55738,0.71663 -0.23889,0.31854 -0.35833,0.49106 -0.35832,0.51758 l -5.17572,-3.18506 c 0.47775,-0.71661 0.87588,-1.28726 1.1944,-1.71197 0.34504,-0.42464 1.00859,-1.14128 1.99066,-2.14992 1.00859,-1.00856 1.99065,-1.8181 2.94618,-2.4286 0.98204,-0.61043 2.25607,-1.16782 3.82207,-1.67216 1.56597,-0.5308 3.18504,-0.79622 4.85721,-0.79626 2.14989,4e-5 4.22018,0.41144 6.21087,1.23421 2.01717,0.82284 3.80876,1.9907 5.37478,3.50356 1.5925,1.4864 2.87979,3.39743 3.86189,5.73311 0.98202,2.30919 1.49959,4.85724 1.55271,7.64414 l 0,13.33743 c -4e-5,1.80487 0.17249,3.62301 0.51757,5.45441 0.34501,1.80487 0.76969,3.19833 1.27403,4.18039 m -21.69821,-5.33497 c 2.60111,0 5.17569,-0.83607 7.72376,-2.50823 2.54802,-1.67215 4.51214,-3.64954 5.89236,-5.93218 l 0,-5.37478 c -2.22957,0.0266 -4.2335,0.10619 -6.0118,0.23888 -1.7518,0.13273 -3.62302,0.37161 -5.61366,0.71664 -1.99068,0.34506 -3.64957,0.79628 -4.97666,1.35364 -1.32712,0.55741 -2.42862,1.32713 -3.30449,2.30917 -0.87591,0.98208 -1.31385,2.13666 -1.31384,3.46375 -1e-5,1.38021 0.637,2.68077 1.91103,3.9017 1.27401,1.22095 3.17178,1.83141 5.6933,1.83141"
             id="path5459"
             style="font-size:81.53749847px;text-align:start;line-height:125%;letter-spacing:27.40637207px;writing-mode:lr-tb;text-anchor:start;fill:#ffffff;font-family:Sawasdee;-inkscape-font-specification:Sawasdee Bold" />
          <path
             d="m 226.74227,334.14533 -6.3303,0 0,-59.44115 6.3303,0 0,32.56722 15.60679,-13.57631 9.43573,0 -18.3539,15.9651 22.01672,24.48514 -8.16171,0 -18.47334,-20.58344 -2.07029,1.7916 0,18.79184"
             id="path5461"
             style="font-size:81.53749847px;text-align:start;line-height:125%;letter-spacing:27.40637207px;writing-mode:lr-tb;text-anchor:start;fill:#ffffff;font-family:Sawasdee;-inkscape-font-specification:Sawasdee Bold" />
          <path
             d="m 293.60356,309.3815 25.2814,0 c -0.84939,-3.02578 -2.45519,-5.48092 -4.8174,-7.36545 -2.33574,-1.88445 -4.93687,-2.8267 -7.8034,-2.82674 -2.81349,4e-5 -5.40134,0.94229 -7.76358,2.82674 -2.33572,1.88453 -3.96806,4.33967 -4.89702,7.36545 m -0.71664,5.89236 c 0.31849,3.82209 1.76504,7.00714 4.33964,9.55518 2.57457,2.52151 5.53402,3.78226 8.87835,3.78225 2.62765,1e-5 5.06952,-0.66354 7.32563,-1.99066 2.25605,-1.35364 4.15382,-3.33103 5.6933,-5.93217 l 5.4146,2.90637 c -1.03519,1.83141 -2.24286,3.45048 -3.62301,4.85721 -1.38023,1.3802 -2.7206,2.45515 -4.02113,3.22487 -1.3006,0.76973 -2.66752,1.39347 -4.10077,1.87122 -1.4333,0.47776 -2.66751,0.783 -3.70263,0.91571 -1.00863,0.13271 -2.00395,0.19906 -2.98599,0.19906 -3.60975,0 -6.91425,-0.94224 -9.91349,-2.82674 -2.99928,-1.88448 -5.34826,-4.40599 -7.04695,-7.56451 -1.67216,-3.18505 -2.50823,-6.63552 -2.50823,-10.35144 0,-3.68934 0.86261,-7.11327 2.58786,-10.27181 1.72523,-3.18503 4.10075,-5.73307 7.12657,-7.64414 3.02579,-1.911 6.33028,-2.86652 9.91349,-2.86656 3.42391,4e-5 6.58243,0.86266 9.47555,2.58786 2.89306,1.72528 5.2155,4.04772 6.96732,6.96732 1.75174,2.89312 2.77361,6.06491 3.06562,9.51536 l 0.15925,3.06562 -33.04498,0"
             id="path5463"
             style="font-size:81.53749847px;text-align:start;line-height:125%;letter-spacing:27.40637207px;writing-mode:lr-tb;text-anchor:start;fill:#ffffff;font-family:Sawasdee;-inkscape-font-specification:Sawasdee Bold" />
          <path
             d="m 387.49803,302.49381 -5.89236,2.07029 -0.43795,-1.35365 c -0.50432,-1.38016 -1.28731,-2.4153 -2.34898,-3.10543 -1.03516,-0.7166 -2.14993,-1.07492 -3.34431,-1.07496 -1.40675,4e-5 -2.56133,0.41144 -3.46375,1.23421 -0.90245,0.82284 -1.35366,1.88453 -1.35365,3.18506 -1e-5,0.84938 0.34504,1.63237 1.03515,2.34898 0.69008,0.69012 1.59251,1.30059 2.70729,1.83141 1.11476,0.50433 2.33569,1.0219 3.66282,1.55272 1.35363,0.53086 2.69401,1.1546 4.02114,1.87122 1.35362,0.71666 2.58783,1.52619 3.70263,2.4286 1.11474,0.90246 2.01717,2.07031 2.7073,3.50357 0.69006,1.43329 1.03511,3.05236 1.03514,4.85721 -3e-5,3.769 -1.40676,6.87443 -4.2202,9.3163 -2.81349,2.44188 -6.14453,3.66282 -9.99312,3.66282 -2.20302,0 -4.26003,-0.42468 -6.17105,-1.27403 -1.91105,-0.87589 -3.5832,-2.28262 -5.01647,-4.2202 -1.43328,-1.96411 -2.34898,-4.32636 -2.74711,-7.08675 l -0.19907,-1.35365 6.25068,-0.75646 0.19907,1.27403 c 0.34503,2.49497 1.23419,4.35292 2.66748,5.57385 1.43326,1.22095 3.13196,1.83141 5.0961,1.83141 2.09681,0 3.94148,-0.63701 5.53403,-1.91104 1.59251,-1.30055 2.38877,-2.98598 2.3888,-5.05628 -3e-5,-1.16784 -0.35835,-2.18971 -1.07496,-3.06562 -0.69012,-0.90241 -1.59255,-1.64559 -2.7073,-2.22954 -1.11479,-0.61045 -2.349,-1.1811 -3.70263,-1.71197 -1.32712,-0.55736 -2.6675,-1.15456 -4.02114,-1.79159 -1.35366,-0.63699 -2.58787,-1.34036 -3.70263,-2.1101 -1.11478,-0.79624 -2.03048,-1.83139 -2.74711,-3.10543 -0.6901,-1.274 -1.03515,-2.73382 -1.03514,-4.37946 -10e-6,-3.15848 1.08822,-5.67998 3.26468,-7.56451 2.20299,-1.88446 4.83066,-2.8267 7.88302,-2.82674 1.40672,4e-5 2.80018,0.22565 4.18039,0.67682 1.38017,0.45126 2.77363,1.32715 4.18039,2.62768 1.43325,1.3006 2.50821,2.93294 3.22487,4.89702 l 0.43795,1.23421"
             id="path5465"
             style="font-size:81.53749847px;text-align:start;line-height:125%;letter-spacing:27.40637207px;writing-mode:lr-tb;text-anchor:start;fill:#ffffff;font-family:Sawasdee;-inkscape-font-specification:Sawasdee Bold" />
          <path
             d="m 426.52987,334.14533 0,-59.44115 6.3303,0 0,26.11748 c 1.61906,-2.22951 3.49028,-4.06092 5.61367,-5.49423 2.14989,-1.45978 4.25999,-2.18969 6.3303,-2.18973 2.22952,4e-5 4.22018,0.45126 5.97199,1.35365 1.75175,0.87593 3.15848,2.0836 4.2202,3.62301 1.06165,1.53948 1.85792,3.27799 2.3888,5.21553 0.5308,1.91106 0.79622,3.95481 0.79626,6.13124 l 0,24.6842 -6.25068,0 0,-24.6842 c -3e-5,-1.22091 -0.11947,-2.38877 -0.35832,-3.50357 -0.21236,-1.11474 -0.57068,-2.20296 -1.07495,-3.26468 -0.50433,-1.0882 -1.24751,-1.95082 -2.22955,-2.58786 -0.98208,-0.66352 -2.16321,-0.9953 -3.54337,-0.99533 -1.75181,3e-5 -3.58321,0.88919 -5.49423,2.66748 -1.88451,1.77836 -3.42395,3.83537 -4.61833,6.17106 -1.16787,2.30919 -1.7518,4.29985 -1.75179,5.97198 l 0,20.22512 -6.3303,0"
             id="path5467"
             style="font-size:81.53749847px;text-align:start;line-height:125%;letter-spacing:27.40637207px;writing-mode:lr-tb;text-anchor:start;fill:#ffffff;font-family:Sawasdee;-inkscape-font-specification:Sawasdee Bold" />
          <path
             d="m 500.07978,280.59654 c 1.24747,5e-5 2.30916,0.42472 3.18506,1.27402 0.90242,0.8494 1.35363,1.88454 1.35365,3.10543 -2e-5,1.19445 -0.45123,2.20305 -1.35365,3.02581 -0.8759,0.82285 -1.93759,1.23425 -3.18506,1.23421 -1.30057,4e-5 -2.3888,-0.41136 -3.26469,-1.23421 -0.87589,-0.82276 -1.31384,-1.83136 -1.31383,-3.02581 -10e-6,-1.22089 0.43794,-2.25603 1.31383,-3.10543 0.90243,-0.8493 1.99066,-1.27397 3.26469,-1.27402 m 3.06562,53.54879 -6.29049,0 0,-40.37062 6.29049,0 0,40.37062"
             id="path5469"
             style="font-size:81.53749847px;text-align:start;line-height:125%;letter-spacing:27.40637207px;writing-mode:lr-tb;text-anchor:start;fill:#ffffff;font-family:Sawasdee;-inkscape-font-specification:Sawasdee Bold" />
          <path
             d="m 591.54562,317.90153 5.0961,3.3045 c -6.76831,8.97125 -15.32814,13.45687 -25.67954,13.45687 -4.19369,0 -8.21482,-0.79626 -12.06341,-2.38879 -3.82209,-1.59253 -7.12658,-3.72917 -9.91349,-6.40993 -2.7604,-2.68075 -4.96339,-5.87907 -6.609,-9.59499 -1.64562,-3.74242 -2.46842,-7.67066 -2.46842,-11.78472 0,-4.114 0.8228,-8.04223 2.46842,-11.78471 1.64561,-3.7424 3.8486,-6.96727 6.609,-9.67462 2.78691,-2.70724 6.0914,-4.85716 9.91349,-6.44974 3.84859,-1.59247 7.86972,-2.38874 12.06341,-2.38879 2.12334,5e-5 4.18035,0.19912 6.17105,0.59719 1.99062,0.39819 3.7424,0.9025 5.25535,1.51291 1.51285,0.58398 2.98594,1.31389 4.41927,2.18972 1.43322,0.87595 2.62762,1.71203 3.58319,2.50824 0.95546,0.76977 1.89771,1.64566 2.82674,2.62767 0.92892,0.95557 1.61901,1.71202 2.07029,2.26936 0.45115,0.53089 0.90237,1.11481 1.35365,1.75178 l -5.01647,3.623 c -0.71669,-0.90239 -1.30062,-1.61903 -1.75178,-2.14991 -0.45127,-0.5308 -1.38025,-1.41996 -2.78693,-2.66749 -1.38024,-1.24743 -2.74716,-2.24276 -4.10076,-2.98599 -1.3537,-0.76967 -3.11875,-1.47304 -5.29516,-2.1101 -2.14996,-0.63696 -4.39277,-0.95547 -6.72844,-0.95552 -3.37088,5e-5 -6.58248,0.63706 -9.6348,1.91103 -3.05237,1.27408 -5.68004,2.98605 -7.88302,5.13591 -2.20301,2.14996 -3.95479,4.72455 -5.25535,7.72377 -1.27403,2.97276 -1.91104,6.10473 -1.91103,9.39592 -10e-6,3.26471 0.637,6.38341 1.91103,9.35611 1.30056,2.97274 3.03906,5.54733 5.21554,7.72377 2.20298,2.14992 4.83065,3.86189 7.88302,5.1359 3.07886,1.27403 6.30373,1.91104 9.67461,1.91104 2.30913,0 4.5254,-0.30523 6.64881,-0.91571 2.14987,-0.61046 3.92819,-1.31382 5.33497,-2.1101 1.40669,-0.79625 2.76034,-1.76504 4.06095,-2.90636 1.32706,-1.1413 2.26931,-2.04373 2.82674,-2.7073 0.58388,-0.66354 1.15453,-1.38018 1.71197,-2.14992"
             id="path5471"
             style="font-size:81.53749847px;text-align:start;line-height:125%;letter-spacing:27.40637207px;writing-mode:lr-tb;text-anchor:start;fill:#ffffff;font-family:Sawasdee;-inkscape-font-specification:Sawasdee Bold" />
          <path
             d="m 667.48434,334.14533 -6.9275,0 c -0.90247,-2.0172 -1.28733,-3.86188 -1.15459,-5.53404 -4.1406,4.14058 -8.67931,6.21087 -13.61612,6.21087 -2.33573,0 -4.41929,-0.35832 -6.25068,-1.07496 -1.83142,-0.71664 -3.29124,-1.65888 -4.37946,-2.82674 -1.06169,-1.16785 -1.87122,-2.41533 -2.4286,-3.74244 -0.53085,-1.35365 -0.79627,-2.72056 -0.79627,-4.10077 0,-1.43326 0.22561,-2.73382 0.67683,-3.90169 0.45121,-1.19438 1.02186,-2.21626 1.71197,-3.06562 0.69008,-0.87587 1.60579,-1.6456 2.74711,-2.30917 1.1413,-0.69007 2.22953,-1.24746 3.26468,-1.67216 1.06168,-0.42465 2.34897,-0.79624 3.86189,-1.11477 1.53942,-0.31848 2.85326,-0.54409 3.94151,-0.67682 1.11475,-0.15923 2.48167,-0.27867 4.10076,-0.35832 1.61905,-0.0796 2.85325,-0.11942 3.70263,-0.11944 0.84932,-0.0265 1.96409,-0.0398 3.34431,-0.0398 -0.37162,-3.31774 -1.59256,-5.94541 -3.66282,-7.88302 -2.04377,-1.93755 -4.35293,-2.90633 -6.9275,-2.90637 -0.63703,4e-5 -1.2475,0.0531 -1.83141,0.15925 -0.58394,0.10621 -1.12806,0.26546 -1.63234,0.47776 -0.50432,0.21237 -0.9688,0.42471 -1.39346,0.63701 -0.42469,0.21238 -0.84937,0.49107 -1.27403,0.83608 -0.39814,0.34508 -0.74319,0.63705 -1.03514,0.87589 -0.26543,0.21237 -0.5574,0.51761 -0.87589,0.91571 -0.31852,0.37162 -0.54413,0.65031 -0.67683,0.83608 -0.13272,0.15928 -0.31851,0.39816 -0.55738,0.71663 -0.23889,0.31854 -0.35833,0.49106 -0.35832,0.51758 l -5.17572,-3.18506 c 0.47775,-0.71661 0.87588,-1.28726 1.1944,-1.71197 0.34504,-0.42464 1.00859,-1.14128 1.99066,-2.14992 1.00859,-1.00856 1.99065,-1.8181 2.94618,-2.4286 0.98204,-0.61043 2.25607,-1.16782 3.82207,-1.67216 1.56597,-0.5308 3.18504,-0.79622 4.85721,-0.79626 2.14989,4e-5 4.22018,0.41144 6.21087,1.23421 2.01717,0.82284 3.80876,1.9907 5.37478,3.50356 1.5925,1.4864 2.87979,3.39743 3.86189,5.73311 0.98202,2.30919 1.49959,4.85724 1.55271,7.64414 l 0,13.33743 c -4e-5,1.80487 0.17249,3.62301 0.51757,5.45441 0.34501,1.80487 0.76969,3.19833 1.27403,4.18039 m -21.69821,-5.33497 c 2.60111,0 5.17569,-0.83607 7.72376,-2.50823 2.54802,-1.67215 4.51214,-3.64954 5.89236,-5.93218 l 0,-5.37478 c -2.22957,0.0266 -4.2335,0.10619 -6.0118,0.23888 -1.7518,0.13273 -3.62302,0.37161 -5.61366,0.71664 -1.99068,0.34506 -3.64956,0.79628 -4.97666,1.35364 -1.32712,0.55741 -2.42862,1.32713 -3.30449,2.30917 -0.87591,0.98208 -1.31385,2.13666 -1.31384,3.46375 -10e-6,1.38021 0.637,2.68077 1.91103,3.9017 1.27401,1.22095 3.17178,1.83141 5.6933,1.83141"
             id="path5473"
             style="font-size:81.53749847px;text-align:start;line-height:125%;letter-spacing:27.40637207px;writing-mode:lr-tb;text-anchor:start;fill:#ffffff;font-family:Sawasdee;-inkscape-font-specification:Sawasdee Bold" />
          <path
             d="m 729.01066,302.49381 -5.89236,2.07029 -0.43794,-1.35365 c -0.50433,-1.38016 -1.28732,-2.4153 -2.34898,-3.10543 -1.03517,-0.7166 -2.14994,-1.07492 -3.34431,-1.07496 -1.40675,4e-5 -2.56134,0.41144 -3.46375,1.23421 -0.90245,0.82284 -1.35367,1.88453 -1.35365,3.18506 -2e-5,0.84938 0.34503,1.63237 1.03514,2.34898 0.69008,0.69012 1.59251,1.30059 2.7073,1.83141 1.11475,0.50433 2.33569,1.0219 3.66282,1.55272 1.35362,0.53086 2.694,1.1546 4.02113,1.87122 1.35363,0.71666 2.58784,1.52619 3.70263,2.4286 1.11474,0.90246 2.01718,2.07031 2.7073,3.50357 0.69007,1.43329 1.03511,3.05236 1.03515,4.85721 -4e-5,3.769 -1.40677,6.87443 -4.22021,9.3163 -2.81349,2.44188 -6.14453,3.66282 -9.99312,3.66282 -2.20301,0 -4.26003,-0.42468 -6.17105,-1.27403 -1.91104,-0.87589 -3.5832,-2.28262 -5.01646,-4.2202 -1.43329,-1.96411 -2.34899,-4.32636 -2.74712,-7.08675 l -0.19906,-1.35365 6.25067,-0.75646 0.19907,1.27403 c 0.34504,2.49497 1.2342,4.35292 2.66749,5.57385 1.43326,1.22095 3.13195,1.83141 5.09609,1.83141 2.09681,0 3.94149,-0.63701 5.53404,-1.91104 1.5925,-1.30055 2.38877,-2.98598 2.38879,-5.05628 -2e-5,-1.16784 -0.35834,-2.18971 -1.07495,-3.06562 -0.69012,-0.90241 -1.59256,-1.64559 -2.7073,-2.22954 -1.1148,-0.61045 -2.349,-1.1811 -3.70263,-1.71197 -1.32713,-0.55736 -2.66751,-1.15456 -4.02114,-1.79159 -1.35366,-0.63699 -2.58787,-1.34036 -3.70263,-2.1101 -1.11478,-0.79624 -2.03049,-1.83139 -2.74711,-3.10543 -0.69011,-1.274 -1.03516,-2.73382 -1.03515,-4.37946 -1e-5,-3.15848 1.08822,-5.67998 3.26469,-7.56451 2.20298,-1.88446 4.83065,-2.8267 7.88302,-2.82674 1.40671,4e-5 2.80017,0.22565 4.18039,0.67682 1.38016,0.45126 2.77363,1.32715 4.18038,2.62768 1.43325,1.3006 2.50821,2.93294 3.22488,4.89702 l 0.43794,1.23421"
             id="path5475"
             style="font-size:81.53749847px;text-align:start;line-height:125%;letter-spacing:27.40637207px;writing-mode:lr-tb;text-anchor:start;fill:#ffffff;font-family:Sawasdee;-inkscape-font-specification:Sawasdee Bold" />
          <path
             d="m 774.37278,334.06571 -6.33031,0 0,-34.35882 -3.46375,0 0,-5.93218 3.46375,0 0,-8.91816 6.33031,0 0,8.91816 11.50602,0 -2.1101,5.93218 -9.39592,0 0,34.35882"
             id="path5477"
             style="font-size:81.53749847px;text-align:start;line-height:125%;letter-spacing:27.40637207px;writing-mode:lr-tb;text-anchor:start;fill:#ffffff;font-family:Sawasdee;-inkscape-font-specification:Sawasdee Bold" />
          <path
             d="m 825.03007,334.14533 -6.33031,0 0,-59.44115 6.33031,0 0,59.44115"
             id="path5479"
             style="font-size:81.53749847px;text-align:start;line-height:125%;letter-spacing:27.40637207px;writing-mode:lr-tb;text-anchor:start;fill:#ffffff;font-family:Sawasdee;-inkscape-font-specification:Sawasdee Bold" />
          <path
             d="m 868.79968,309.3815 25.2814,0 c -0.84939,-3.02578 -2.45518,-5.48092 -4.8174,-7.36545 -2.33574,-1.88445 -4.93687,-2.8267 -7.8034,-2.82674 -2.81349,4e-5 -5.40134,0.94229 -7.76358,2.82674 -2.33572,1.88453 -3.96806,4.33967 -4.89702,7.36545 m -0.71664,5.89236 c 0.31849,3.82209 1.76504,7.00714 4.33964,9.55518 2.57457,2.52151 5.53402,3.78226 8.87835,3.78225 2.62765,1e-5 5.06952,-0.66354 7.32564,-1.99066 2.25605,-1.35364 4.15381,-3.33103 5.69329,-5.93217 l 5.4146,2.90637 c -1.03519,1.83141 -2.24285,3.45048 -3.62301,4.85721 -1.38023,1.3802 -2.7206,2.45515 -4.02113,3.22487 -1.3006,0.76973 -2.66752,1.39347 -4.10077,1.87122 -1.4333,0.47776 -2.66751,0.783 -3.70263,0.91571 -1.00862,0.13271 -2.00395,0.19906 -2.98599,0.19906 -3.60975,0 -6.91425,-0.94224 -9.91349,-2.82674 -2.99928,-1.88448 -5.34826,-4.40599 -7.04695,-7.56451 -1.67216,-3.18505 -2.50823,-6.63552 -2.50823,-10.35144 0,-3.68934 0.86262,-7.11327 2.58786,-10.27181 1.72523,-3.18503 4.10075,-5.73307 7.12657,-7.64414 3.02579,-1.911 6.33028,-2.86652 9.91349,-2.86656 3.42391,4e-5 6.58243,0.86266 9.47555,2.58786 2.89306,1.72528 5.2155,4.04772 6.96732,6.96732 1.75174,2.89312 2.77361,6.06491 3.06562,9.51536 l 0.15925,3.06562 -33.04498,0"
             id="path5481"
             style="font-size:81.53749847px;text-align:start;line-height:125%;letter-spacing:27.40637207px;writing-mode:lr-tb;text-anchor:start;fill:#ffffff;font-family:Sawasdee;-inkscape-font-specification:Sawasdee Bold" />
        </g>
      </g>
    </g>
  </g>
</svg>
